<svg width="88" height="96" viewBox="0 0 88 96" fill="none" xmlns="http://www.w3.org/2000/svg">
<path d="M43.9969 63.6817C41.7005 63.6817 39.7668 64.8496 39.5151 66.3512L37.2387 91.4756C37.2387 93.9635 40.2451 96 43.9969 96C47.7689 96 50.7554 93.9635 50.7554 91.4756L48.459 66.3512C48.2171 64.8496 46.2935 63.6817 43.9969 63.6817Z" fill="#FCB61A"/>
<path d="M57.9635 55.8199C56.8257 57.7827 56.8911 59.9615 58.1197 60.9331L79.3717 75.414C81.5823 76.6702 84.8912 75.1735 86.7846 72.0035C88.6731 68.8384 88.2904 65.2857 86.125 64.054L62.5969 53.4252C61.091 52.8756 59.122 53.8963 57.9635 55.8395" fill="#FCB61A"/>
<path d="M30.0339 55.8402C28.8305 53.8969 26.8615 52.8763 25.3959 53.3964L1.86784 64.0547C-0.317876 65.3109 -0.645244 68.8293 1.20298 71.9944C3.09149 75.1644 6.42033 76.6512 8.62601 75.4195L29.883 60.9534C31.0614 59.967 31.1469 57.7785 30.009 55.8205" fill="#FCB61A"/>
<path d="M43.9969 32.2987C41.7005 32.2987 39.7668 31.1308 39.5151 29.6292L37.2387 4.50479C37.2387 2.01688 40.2451 6.01163e-05 43.9969 6.04443e-05C47.7689 6.07741e-05 50.7554 2.01688 50.7554 4.50479L48.459 29.6292C48.2171 31.1308 46.2935 32.2987 43.9969 32.2987Z" fill="#FCB61A"/>
<path d="M30.0339 40.1374C28.8305 42.0855 26.8615 43.1258 25.3959 42.5615L1.86784 31.9228C-0.317876 30.6912 -0.645243 27.1433 1.20298 23.9733C3.09149 20.8279 6.42033 19.3312 8.62601 20.5629L29.883 35.0487C31.0614 36.0252 31.1469 38.204 30.009 40.1374" fill="#FCB61A"/>
<path d="M57.9635 40.159C56.8256 38.2011 56.8911 36.0272 58.1197 35.0458L79.3717 20.5845C81.5823 19.3283 84.8912 20.8299 86.7846 23.9753C88.6731 27.1404 88.2904 30.6932 86.125 31.9249L62.5969 42.5635C61.091 43.1229 59.122 42.0924 57.9635 40.159Z" fill="#FCB61A"/>
</svg>
